<svg xmlns="http://www.w3.org/2000/svg" x="0px" y="0px" width="100" height="100" viewBox="0,0,256,256">
<g fill="#ffffff" fill-rule="nonzero" stroke="none" stroke-width="1" stroke-linecap="butt" stroke-linejoin="miter" stroke-miterlimit="10" stroke-dasharray="" stroke-dashoffset="0" font-family="none" font-weight="none" font-size="none" text-anchor="none" style="mix-blend-mode: normal"><g transform="scale(8.53333,8.53333)"><path d="M19.66406,0c-0.241,0 -0.44623,0.1712 -0.49023,0.4082l-0.2207,1.17578c-0.057,0.305 -0.29852,0.5327 -0.60352,0.5957c-0.284,0.059 -0.56394,0.1327 -0.83594,0.2207c-0.295,0.096 -0.61636,0.02016 -0.81836,-0.21484l-0.77539,-0.90625c-0.157,-0.183 -0.42186,-0.22647 -0.63086,-0.10547l-0.57812,0.33398c-0.208,0.12 -0.30266,0.37261 -0.22266,0.59961l0.39649,1.12695c0.103,0.292 0.00834,0.60941 -0.22266,0.81641c-0.215,0.193 -0.41833,0.39633 -0.61133,0.61133c-0.207,0.231 -0.52441,0.32761 -0.81641,0.22461l-1.12891,-0.39844c-0.227,-0.08 -0.47766,0.01366 -0.59766,0.22266l-0.33594,0.58008c-0.12,0.208 -0.07458,0.47386 0.10742,0.63086l0.09766,0.08398c1.183,0.02 2.19506,0.8662 2.41406,2.0332l0.06055,0.31836l0.20899,-0.24609c0.459,-0.534 1.10163,-0.82437 1.76563,-0.85937c0.896,-1.355 2.42883,-2.25195 4.17383,-2.25195c2.761,0 5,2.239 5,5c0,1.745 -0.89695,3.27788 -2.25195,4.17188c-0.035,0.664 -0.32538,1.30762 -0.85937,1.76563l-0.24609,0.20898l0.31836,0.06055c1.167,0.219 2.0132,1.23106 2.0332,2.41406l0.08398,0.09766c0.157,0.183 0.42186,0.22842 0.63086,0.10742l0.58008,-0.33594c0.208,-0.12 0.30266,-0.37066 0.22266,-0.59766l-0.39844,-1.12891c-0.103,-0.292 -0.00639,-0.60941 0.22461,-0.81641c0.215,-0.193 0.41833,-0.39633 0.61133,-0.61133c0.207,-0.231 0.52441,-0.32566 0.81641,-0.22266l1.12695,0.39649c0.227,0.08 0.47961,-0.01366 0.59961,-0.22266l0.33398,-0.58008c0.12,-0.208 0.07653,-0.47191 -0.10547,-0.62891l-0.90625,-0.77734c-0.235,-0.202 -0.31084,-0.52336 -0.21484,-0.81836c0.088,-0.272 0.1617,-0.54998 0.2207,-0.83398c0.063,-0.304 0.2907,-0.54552 0.5957,-0.60352l1.17578,-0.22266c0.237,-0.041 0.4082,-0.24533 0.4082,-0.48633v-0.67188c0,-0.241 -0.1712,-0.44623 -0.4082,-0.49023l-1.17578,-0.2207c-0.305,-0.057 -0.5327,-0.29852 -0.5957,-0.60352c-0.059,-0.284 -0.1327,-0.56394 -0.2207,-0.83594c-0.096,-0.295 -0.02016,-0.61636 0.21484,-0.81836l0.90625,-0.77539c0.183,-0.157 0.22647,-0.42186 0.10547,-0.63086l-0.33398,-0.57812c-0.12,-0.208 -0.37261,-0.30266 -0.59961,-0.22266l-1.12695,0.39648c-0.292,0.103 -0.60941,0.00834 -0.81641,-0.22266c-0.193,-0.215 -0.39633,-0.41833 -0.61133,-0.61133c-0.231,-0.207 -0.32761,-0.52441 -0.22461,-0.81641l0.39844,-1.12891c0.08,-0.227 -0.01366,-0.47766 -0.22266,-0.59766l-0.58008,-0.33594c-0.208,-0.12 -0.47386,-0.07458 -0.63086,0.10742l-0.77539,0.90625c-0.202,0.235 -0.52336,0.31084 -0.81836,0.21484c-0.272,-0.088 -0.55194,-0.1617 -0.83594,-0.2207c-0.304,-0.063 -0.54552,-0.29266 -0.60352,-0.59766l-0.2207,-1.17578c-0.042,-0.236 -0.24728,-0.40625 -0.48828,-0.40625zM10.66406,8c-0.241,0 -0.44623,0.17025 -0.49023,0.40625l-0.18555,0.98828c-0.077,0.411 -0.40445,0.71387 -0.81445,0.79687c-0.341,0.069 -0.67595,0.15667 -1.00195,0.26367c-0.396,0.13 -0.83056,0.0328 -1.10156,-0.2832l-0.65039,-0.75977c-0.157,-0.182 -0.42286,-0.22547 -0.63086,-0.10547l-0.57812,0.33398c-0.209,0.12 -0.30266,0.37261 -0.22266,0.59961l0.33594,0.95117c0.138,0.394 0.00631,0.8177 -0.30469,1.0957c-0.257,0.23 -0.50147,0.47347 -0.73047,0.73047c-0.278,0.311 -0.7017,0.44269 -1.0957,0.30469l-0.95312,-0.33399c-0.227,-0.08 -0.47766,0.01466 -0.59766,0.22266l-0.33594,0.57812c-0.121,0.209 -0.07558,0.47386 0.10742,0.63086l0.75977,0.65039c0.316,0.271 0.4132,0.70556 0.2832,1.10156c-0.107,0.326 -0.19467,0.66095 -0.26367,1.00195c-0.083,0.41 -0.38587,0.73745 -0.79687,0.81445l-0.98828,0.18555c-0.237,0.044 -0.4082,0.24923 -0.4082,0.49023v0.67188c0,0.241 0.17025,0.44623 0.40625,0.49023l0.98828,0.18555c0.411,0.077 0.71388,0.40445 0.79687,0.81445c0.069,0.342 0.15667,0.67595 0.26367,1.00195c0.13,0.396 0.0328,0.83056 -0.2832,1.10156l-0.75977,0.65039c-0.182,0.157 -0.22547,0.42286 -0.10547,0.63086l0.33398,0.57812c0.12,0.209 0.37261,0.30266 0.59961,0.22266l0.95117,-0.33594c0.394,-0.138 0.8177,-0.00631 1.0957,0.30469c0.23,0.257 0.47347,0.50147 0.73047,0.73047c0.311,0.278 0.44269,0.7017 0.30469,1.0957l-0.33398,0.95313c-0.08,0.227 0.01466,0.47766 0.22266,0.59766l0.57813,0.33594c0.209,0.121 0.47386,0.07558 0.63086,-0.10742l0.65039,-0.75977c0.271,-0.316 0.70556,-0.4132 1.10156,-0.2832c0.326,0.107 0.66095,0.19467 1.00195,0.26367c0.41,0.083 0.73745,0.38588 0.81445,0.79688l0.18555,0.98828c0.044,0.237 0.24924,0.4082 0.49023,0.4082h0.67188c0.241,0 0.44628,-0.17125 0.48828,-0.40625l0.18555,-0.98828c0.077,-0.411 0.40445,-0.71387 0.81445,-0.79687c0.342,-0.069 0.67595,-0.15667 1.00195,-0.26367c0.396,-0.13 0.83056,-0.0328 1.10156,0.2832l0.65039,0.75977c0.157,0.182 0.42091,0.22742 0.62891,0.10742l0.58008,-0.33594c0.209,-0.12 0.30266,-0.37066 0.22266,-0.59766l-0.33398,-0.95312c-0.138,-0.394 -0.00631,-0.8177 0.30469,-1.0957c0.257,-0.23 0.50147,-0.47347 0.73047,-0.73047c0.278,-0.311 0.7027,-0.44269 1.0957,-0.30469l0.95313,0.33398c0.227,0.08 0.47766,-0.01466 0.59766,-0.22266l0.33594,-0.57812c0.121,-0.209 0.07558,-0.47386 -0.10742,-0.63086l-0.75977,-0.65039c-0.316,-0.271 -0.4132,-0.70556 -0.2832,-1.10156c0.107,-0.326 0.19467,-0.66095 0.26367,-1.00195c0.083,-0.41 0.38588,-0.73745 0.79688,-0.81445l0.98828,-0.18555c0.237,-0.044 0.4082,-0.24923 0.4082,-0.49023v-0.67188c0,-0.241 -0.17125,-0.44528 -0.40625,-0.48828l-0.98828,-0.18555c-0.411,-0.077 -0.71387,-0.40641 -0.79687,-0.81641c-0.069,-0.341 -0.15667,-0.67595 -0.26367,-1.00195c-0.13,-0.396 -0.0328,-0.82861 0.2832,-1.09961l0.75977,-0.65039c0.182,-0.157 0.22742,-0.42286 0.10742,-0.63086l-0.33594,-0.58008c-0.12,-0.209 -0.37066,-0.30266 -0.59766,-0.22266l-0.95312,0.33594c-0.394,0.138 -0.8177,0.00631 -1.0957,-0.30469c-0.23,-0.257 -0.47347,-0.50147 -0.73047,-0.73047c-0.311,-0.278 -0.44269,-0.7017 -0.30469,-1.0957l0.33398,-0.95312c0.08,-0.227 -0.01466,-0.47766 -0.22266,-0.59766l-0.57812,-0.33594c-0.209,-0.121 -0.47386,-0.07558 -0.63086,0.10742l-0.65039,0.75977c-0.271,0.316 -0.70556,0.4132 -1.10156,0.2832c-0.326,-0.107 -0.66095,-0.19467 -1.00195,-0.26367c-0.41,-0.083 -0.73745,-0.38587 -0.81445,-0.79687l-0.18555,-0.98828c-0.044,-0.237 -0.24924,-0.4082 -0.49023,-0.4082zM20,9c-0.55228,0 -1,0.44772 -1,1c0,0.55228 0.44772,1 1,1c0.55228,0 1,-0.44772 1,-1c0,-0.55228 -0.44772,-1 -1,-1zM11,13c3.314,0 6,2.686 6,6c0,3.314 -2.686,6 -6,6c-3.314,0 -6,-2.686 -6,-6c0,-3.314 2.686,-6 6,-6zM11,17c-1.105,0 -2,0.895 -2,2c0,1.105 0.895,2 2,2c1.105,0 2,-0.895 2,-2c0,-1.105 -0.895,-2 -2,-2z"></path></g></g>
</svg>